<svg id="图层_1" data-name="图层 1" viewBox="0 0 826.45 249.92"><defs><style>.cls-1,.cls-2{fill:#fff;}.cls-2{font-size:43.48px;font-family:PingFangSC-Regular-GBpc-EUC-H, PingFang SC;}</style></defs><title>chainide</title><path class="cls-1" d="M257,60.7h16.1v55.24h.37A29.84,29.84,0,0,1,285,104.6,33.19,33.19,0,0,1,301.44,100c11.89,0,30.92,7.31,30.92,37.86v52.69h-16.1V139.72c0-14.27-5.3-26.34-20.49-26.34-10.42,0-18.66,7.32-21.58,16.1a19.36,19.36,0,0,0-1.1,7.68v53.42H257Z"></path><path class="cls-1" d="M407.54,190.58l-1.28-11.16h-.55c-4.93,7-14.45,13.17-27.07,13.17-17.93,0-27.07-12.62-27.07-25.43,0-21.4,19-33.11,53.23-32.93V132.4c0-7.31-2-20.48-20.12-20.48a44.13,44.13,0,0,0-23.05,6.58L358,107.89c7.32-4.76,17.93-7.86,29.08-7.86,27.08,0,33.66,18.47,33.66,36.22v33.11a124.42,124.42,0,0,0,1.47,21.22Zm-2.38-45.19c-17.56-.36-37.49,2.75-37.49,19.94,0,10.43,6.95,15.37,15.18,15.37a22,22,0,0,0,21.4-14.82,16.8,16.8,0,0,0,.91-5.12Z"></path><path class="cls-1" d="M464.62,77.16c.18,5.49-3.84,9.88-10.25,9.88a9.57,9.57,0,0,1-9.69-9.88A9.81,9.81,0,0,1,454.74,67.1c6,0,9.88,4.39,9.88,10.06M446.69,102h16.1v88.54h-16.1Z"></path><path class="cls-1" d="M489.5,126c0-9.14-.19-16.64-.74-24H503l.92,14.63h.36C508.7,108.26,519,100,533.58,100c12.26,0,31.28,7.31,31.28,37.68v52.87h-16.1v-51c0-14.27-5.3-26.16-20.48-26.16-10.61,0-18.84,7.5-21.59,16.46a23.2,23.2,0,0,0-1.1,7.5v53.24H489.5Z"></path><rect class="cls-1" x="591.57" y="67.28" width="15.91" height="123.29"></rect><path class="cls-1" d="M635.29,68.93a227,227,0,0,1,33.84-2.56c22.87,0,39.15,5.3,49.94,15.36,11,10.06,17.38,24.33,17.38,44.27,0,20.12-6.22,36.59-17.75,47.93-11.52,11.52-30.54,17.74-54.51,17.74a258.05,258.05,0,0,1-28.9-1.46ZM651.2,178a100.69,100.69,0,0,0,16.1.92c34,0,52.5-19,52.5-52.32C720,97.46,703.52,79,669.86,79a90,90,0,0,0-18.66,1.65Z"></path><polygon class="cls-1" points="820.96 132.77 773.03 132.77 773.03 177.22 826.45 177.22 826.45 190.57 757.12 190.57 757.12 67.28 823.71 67.28 823.71 80.64 773.03 80.64 773.03 119.6 820.96 119.6 820.96 132.77"></polygon><path class="cls-1" d="M178.23,145.63q-5.56,22.91-21.77,36.83-18.69,16-45.89,16-35.8,0-56.42-24.07A77.76,77.76,0,0,1,36.79,138H26.1q4.72,28,23.06,46.4,23.57,23.84,61.41,23.83,34,0,56.66-22.62a75.91,75.91,0,0,0,21.79-40Z"></path><path class="cls-1" d="M164.56,145.63a55.08,55.08,0,0,1-16.62,25.57Q132.48,184.48,110,184.47q-29.59,0-46.64-19.9-15.91-18.49-15.92-47,0-27.94,17-47,17.6-19.9,45.51-19.9,20,0,34.47,9.85A46.91,46.91,0,0,1,158,74.11h9.81A53.8,53.8,0,0,0,151.4,54.59Q134.73,42.53,110,42.53q-34.27,0-53.94,24.53-17.23,21.1-17.24,50.46,0,34.79,20.42,55.29,19.49,19.71,50.76,19.7,28.11,0,46.83-18.69a63,63,0,0,0,16.86-28.19Z"></path><path class="cls-1" d="M200.89,145.63q-6,35.51-29.91,56-24.21,20.81-59.44,20.8-46.38,0-73.09-31.19-24.95-29-25-73.73,0-43.78,26.71-73.73,27.6-31.18,71.33-31.19,31.41,0,54,15.44,24.33,16.29,31.62,46.07h13.54q-7.87-35.76-34.29-55.21Q150.29,0,111.54,0,57.83,0,27,38.44,0,71.52,0,117.52,0,172,32,204.16,62.53,235,111.54,235q44,0,73.39-29.3,25.45-25.16,29.52-60.11Z"></path><path class="cls-1" d="M173.45,74.11H184.3c-4.75-13.66-12.6-24.6-23.65-32.72q-20.16-14.59-50.08-14.6-41.46,0-65.26,29.68A90.15,90.15,0,0,0,26.37,97H37A78.84,78.84,0,0,1,55.51,60.6q21.3-24.08,55.06-24.08,24.25,0,41.7,11.92a56.49,56.49,0,0,1,21.18,25.67"></path><text class="cls-2" transform="translate(395.22 239.83)">Swift, Simple, Smart</text></svg>