<svg xmlns="http://www.w3.org/2000/svg" viewBox="0 0 199.48 193.57"><g id="Layer_2" data-name="Layer 2"><g id="图层_1" data-name="图层 1"><rect x="21.06" y="81.15" width="159.92" height="1.7" transform="translate(-17.45 28.2) rotate(-14.64)" fill="#0b70ff"/><path d="M178,53.18c-18.29-7.73-48.79-19.88-78.83-28.49-3.79,1.36-7.59,2.77-11.36,4.16-21,7.75-42.7,15.76-58.06,16.22-9.84.29-16.57-2-18.92-6.5-1.58-3-1-6.67,1.67-10.3C19.65,18.57,40,10.43,67.93,15.46c10,1.8,20.56,4.4,31.22,7.44a294,294,0,0,1,30.53-9.6l.39,1.65a276.54,276.54,0,0,0-28.13,8.76c29.38,8.59,58.89,20.35,76.76,27.91ZM52,15.76c-15.6,0-31.12,4.08-38,13.51-2.25,3.08-2.8,6.1-1.54,8.51,2,3.82,8.33,5.86,17.37,5.59C44.82,42.92,66.4,35,87.26,27.26q4.56-1.7,9.15-3.37c-9.83-2.75-19.58-5.09-28.78-6.75A88.54,88.54,0,0,0,52,15.76Z" fill="#0b70ff"/><path d="M46.6,175.11,45.32,174C124.26,84.64,168.63,26.34,164,18a9.79,9.79,0,0,0-5.82-4.52l.53-1.61a11.49,11.49,0,0,1,6.77,5.31c1.19,2.14,4.81,8.67-43.52,69C95.52,119.27,63.39,156.1,46.6,175.11Z" fill="#0b70ff"/><polygon points="38.07 165.31 36.51 164.64 86.63 48.18 22.8 91.41 21.85 90 90.49 43.52 38.07 165.31" fill="#0b70ff"/><path d="M154.28,17a5.11,5.11,0,0,0-.93-2c-1.44-2.14-4.92-3.28-7.41-3.95l-.94-.24a18,18,0,0,1-4.06-1.37,3.32,3.32,0,0,1-2-3,2.43,2.43,0,0,1,0-.6v0A2.68,2.68,0,0,1,139,5.5l0,0a3.42,3.42,0,0,1,.87-1.38,6.28,6.28,0,0,1,4.43-1.6h.06a9.58,9.58,0,0,1,3.85.91,10.38,10.38,0,0,1,3.22,2.28l0,2.59h2.18V.53H151.5V2.27a.11.11,0,0,1-.05.09.11.11,0,0,1-.1,0A11.28,11.28,0,0,0,148.23.65,11.71,11.71,0,0,0,144.5,0a11.53,11.53,0,0,0-3.64.49,7.15,7.15,0,0,0-2.26,1.26,6.07,6.07,0,0,0-2.29,4.71,5.16,5.16,0,0,0,.2,1.55,5.4,5.4,0,0,0,.76,1.58,1.33,1.33,0,0,0,.14.19l0,0c1.46,2,4.72,2.92,7.13,3.58l.6.17.58.15a23.45,23.45,0,0,1,3.66,1.22,4.33,4.33,0,0,1,1.6,1.22,3.83,3.83,0,0,1,.79,1.68,3.77,3.77,0,0,1-.14,1.85,4.67,4.67,0,0,1-1.15,1.81,5.55,5.55,0,0,1-1.95,1.11,8,8,0,0,1-2.16.39,10.74,10.74,0,0,1-3.48-.4,10.2,10.2,0,0,1-4.81-3.21.4.4,0,0,1-.09-.17L138,17H135.8v8.09H138V22.63a9.65,9.65,0,0,0,3.24,1.93,13.6,13.6,0,0,0,4.29.82h.18a9.7,9.7,0,0,0,6.43-1.93,6.65,6.65,0,0,0,1.54-1.95,7,7,0,0,0,.72-2.26A6.26,6.26,0,0,0,154.28,17Zm-3.78-1.33,0,0Zm-.4-.3,0,0Zm-.44-.26,0,0Zm1.2.92-.05-.06Zm-2.08,6.54.08,0Zm.52-.22.09-.05Zm.49-.27.09-.06Zm.46-.33.08-.06Z"/><path d="M42.26,185.14a5.11,5.11,0,0,0-.93-2c-1.44-2.14-4.92-3.28-7.41-3.95L33,179a18,18,0,0,1-4.06-1.37,3.31,3.31,0,0,1-2-3,2.47,2.47,0,0,1,.05-.61v0a2.68,2.68,0,0,1,.07-.27l0-.05a3.39,3.39,0,0,1,.87-1.37,6.24,6.24,0,0,1,4.43-1.61h.06a9.75,9.75,0,0,1,3.85.91,10.72,10.72,0,0,1,3.22,2.28l0,2.6h2.18v-7.73H39.48v1.74a.11.11,0,0,1,0,.09.11.11,0,0,1-.1,0,11.28,11.28,0,0,0-3.12-1.68,12,12,0,0,0-3.73-.65,11.22,11.22,0,0,0-3.64.5,6.93,6.93,0,0,0-2.26,1.25,6.07,6.07,0,0,0-2.29,4.71,5.28,5.28,0,0,0,.2,1.56,5.47,5.47,0,0,0,.76,1.57,2.43,2.43,0,0,0,.14.2l0,0c1.46,2,4.72,2.92,7.13,3.58l.6.17.58.15a24.56,24.56,0,0,1,3.66,1.22,4.43,4.43,0,0,1,1.6,1.22,3.88,3.88,0,0,1,.79,1.68,3.76,3.76,0,0,1-.14,1.85,4.67,4.67,0,0,1-1.15,1.81,5.4,5.4,0,0,1-1.95,1.11,8,8,0,0,1-2.16.39,10.74,10.74,0,0,1-3.48-.4,10.06,10.06,0,0,1-4.81-3.21.35.35,0,0,1-.09-.17l0-2.22H23.78v8.09H26v-2.43a9.8,9.8,0,0,0,3.24,1.92,13.33,13.33,0,0,0,4.29.82h.18a9.64,9.64,0,0,0,6.43-1.93,6.65,6.65,0,0,0,1.54-1.95,7,7,0,0,0,.72-2.26A6.27,6.27,0,0,0,42.26,185.14Zm-3.78-1.33,0,0Zm-.4-.3,0,0Zm-.44-.26,0,0Zm1.2.92-.05-.06Zm-2.08,6.54.08,0Zm.51-.22.1,0Zm.5-.27.09-.06Zm.46-.32.08-.07Z"/><path d="M18.93,108l-6.18-9.35A6.76,6.76,0,0,0,15.8,98a6.65,6.65,0,0,0,3.1-2.84,7.45,7.45,0,0,0,.82-3.42,7.13,7.13,0,0,0-2.06-5,7.72,7.72,0,0,0-5.45-1.93H.22v2.59H2.77V108H0v2.17H8V108H5.44V98.65H9.77L15.83,108H13.07v2.17h8.64V108H19A.12.12,0,0,1,18.93,108ZM5.44,87.29h6.63a4.77,4.77,0,0,1,4.39,2.2A4.6,4.6,0,0,1,16.39,94a3.89,3.89,0,0,1-3.9,2.12h-7Z"/><path d="M199.48,61.78a6.32,6.32,0,0,0-4.17-6.31,5.54,5.54,0,0,0,3.18-5c0-4.53-3.8-6.93-8.76-6.93a9,9,0,0,0-7.56,3.68l2.07,1.34a6.24,6.24,0,0,1,5.49-2.62c3.6,0,6.16,1.46,6.16,4.25s-2.56,4.14-5.19,4.14h-3.57v2.57h3.78c3.34,0,6,1.8,5.9,4.86-.18,3.27-3.05,5-6.81,5a9.55,9.55,0,0,1-7.1-2.9l-.11,0L181,65.73l.08,0A12.66,12.66,0,0,0,190,69.33C195.18,69.33,199.48,66.53,199.48,61.78Z"/></g></g></svg>